<svg fill="#000000" xmlns="http://www.w3.org/2000/svg"  viewBox="0 0 48 48" width="48px" height="48px"><path d="M 24 4 C 16.838262 4 11 9.8382615 11 17 C 11 18.374865 11.214416 19.703895 11.611328 20.951172 A 1.50015 1.50015 0 1 0 14.470703 20.042969 C 14.165615 19.084246 14 18.063135 14 17 C 14 11.459738 18.459738 7 24 7 C 29.540262 7 34 11.459738 34 17 C 34 22.540262 29.540262 27 24 27 C 22.935738 27 21.912579 26.834864 20.955078 26.529297 A 1.50015 1.50015 0 1 0 20.044922 29.386719 C 21.293421 29.785152 22.624262 30 24 30 C 31.161738 30 37 24.161738 37 17 C 37 9.8382615 31.161738 4 24 4 z M 24 11 C 22.125 11 20.528815 11.757133 19.503906 12.910156 C 18.478997 14.063179 18 15.541667 18 17 C 18 17.821202 18.156935 18.647651 18.472656 19.419922 C 9.0663483 30.761359 10.005859 42.625 10.005859 42.625 A 1.50015 1.50015 0 1 0 12.994141 42.375 C 12.994141 42.375 12.128207 32.169481 20.367188 21.869141 C 21.337507 22.571945 22.589884 23 24 23 C 25.875 23 27.471185 22.242867 28.496094 21.089844 C 29.521003 19.936821 30 18.458333 30 17 C 30 15.541667 29.521003 14.063179 28.496094 12.910156 C 27.471185 11.757133 25.875 11 24 11 z M 24 14 C 25.124999 14 25.778816 14.367867 26.253906 14.902344 C 26.728997 15.436821 27 16.208333 27 17 C 27 17.791667 26.728997 18.563179 26.253906 19.097656 C 25.778816 19.632133 25.124999 20 24 20 C 22.875001 20 22.221184 19.632133 21.746094 19.097656 A 1.50015 1.50015 0 0 0 21.341797 18.462891 C 21.127656 18.022286 21 17.519063 21 17 C 21 16.208333 21.271003 15.436821 21.746094 14.902344 C 22.221184 14.367867 22.875001 14 24 14 z"/></svg>